<?xml version="1.0" encoding="UTF-8"?>
<svg version="1.1" xmlns="http://www.w3.org/2000/svg" width="300" height="235">
<path d="M0 0 C99 0 198 0 300 0 C300 77.55 300 155.1 300 235 C201 235 102 235 0 235 C0 157.45 0 79.9 0 0 Z " fill="#FEFEFE" transform="translate(0,0)"/>
<path d="M0 0 C1.16797119 -0.01297119 2.33594238 -0.02594238 3.53930664 -0.03930664 C18.427247 -0.05588441 34.59301022 3.58063945 45.765625 14.08203125 C47.86256765 16.37929159 49.80646012 18.75896668 51.75 21.1875 C52.63538464 22.23160152 53.52218732 23.27450168 54.41015625 24.31640625 C59.40705182 30.28881206 63.73996214 36.38067267 67.3125 43.3125 C67.79589844 44.2243103 67.79589844 44.2243103 68.2890625 45.15454102 C73.05069771 54.93418737 73.10299896 66.14495775 73.4375 76.8125 C73.50807617 78.56626953 73.50807617 78.56626953 73.58007812 80.35546875 C73.88282941 88.92184118 73.88282941 88.92184118 72.75 91.1875 C72.09 90.5275 71.43 89.8675 70.75 89.1875 C70.75 88.1975 70.75 87.2075 70.75 86.1875 C70.42 86.8475 70.09 87.5075 69.75 88.1875 C65.0187747 86.69342885 65.0187747 86.69342885 63.6875 84.1875 C63.378125 83.5275 63.06875 82.8675 62.75 82.1875 C61.42931465 81.49611557 60.09379806 80.8328131 58.75 80.1875 C57.49907979 79.32230251 56.27041165 78.42429298 55.0625 77.5 C54.36382812 76.96632813 53.66515625 76.43265625 52.9453125 75.8828125 C52.22085938 75.32335937 51.49640625 74.76390625 50.75 74.1875 C50.04617187 73.64867188 49.34234375 73.10984375 48.6171875 72.5546875 C44.28449012 69.21587052 40.00616856 65.81076867 35.75 62.375 C34.3578125 61.25158203 34.3578125 61.25158203 32.9375 60.10546875 C30.75 58.1875 30.75 58.1875 29.75 56.1875 C27.52531613 55.95556826 27.52531613 55.95556826 25.75 58.125 C25.31300781 58.58003906 24.87601563 59.03507812 24.42578125 59.50390625 C18.86768358 65.0879158 12.78305998 70.17510146 6.84375 75.34765625 C2.77704588 78.92119663 -1.23345603 82.5577953 -5.25 86.1875 C-8.85026068 84.93603952 -11.14187231 83.6492113 -13.75 80.875 C-14.35070312 80.25109375 -14.95140625 79.6271875 -15.5703125 78.984375 C-16.92550471 77.5346345 -18.27599791 76.08050226 -19.625 74.625 C-22.57903532 71.8819672 -25.71148061 69.79596328 -29.08984375 67.61328125 C-31.60598625 65.9525362 -33.94091483 64.12415208 -36.25 62.1875 C-41.34516473 63.75145983 -44.8623635 66.88920831 -48.875 70.25 C-49.93352173 71.12301758 -49.93352173 71.12301758 -51.01342773 72.01367188 C-53.09682039 73.73289138 -55.17386877 75.45952394 -57.25 77.1875 C-60.8994355 80.2089856 -64.56661463 83.20747465 -68.25 86.1875 C-68.92675781 86.75855469 -69.60351562 87.32960938 -70.30078125 87.91796875 C-72.125 89.375 -72.125 89.375 -75.25 91.1875 C-78.81743016 90.14097673 -81.7408022 88.37454409 -84.8125 86.3125 C-85.55628906 85.82007812 -86.30007812 85.32765625 -87.06640625 84.8203125 C-89.25 83.1875 -89.25 83.1875 -91.06079102 81.13720703 C-93.67980073 78.80471996 -95.0053356 78.59947561 -98.4609375 78.359375 C-99.45867187 78.28203125 -100.45640625 78.2046875 -101.484375 78.125 C-103.03898437 78.0321875 -103.03898437 78.0321875 -104.625 77.9375 C-105.65367188 77.86015625 -106.68234375 77.7828125 -107.7421875 77.703125 C-121.73216092 76.4948661 -121.73216092 76.4948661 -133.8125 82.8125 C-137.39636308 86.15743887 -140.36896112 89.69266607 -143.15625 93.71875 C-143.5171875 94.2034375 -143.878125 94.688125 -144.25 95.1875 C-144.58 95.1875 -144.91 95.1875 -145.25 95.1875 C-145.56640625 93.01953125 -145.56640625 93.01953125 -145.25 90.1875 C-143.08984375 87.57421875 -143.08984375 87.57421875 -140.1875 84.875 C-139.16733848 83.90567547 -138.14910953 82.93431301 -137.1328125 81.9609375 C-136.38692871 81.25275879 -136.38692871 81.25275879 -135.62597656 80.53027344 C-133.82814213 78.77582181 -132.18864611 76.91355798 -130.5625 75 C-127.56961751 71.49753799 -124.39017749 68.24075322 -121.1015625 65.015625 C-119.97196456 63.90032576 -118.85798955 62.76852587 -117.7734375 61.609375 C-115.41763245 59.09458924 -113.74765748 57.57612861 -110.25 57.1875 C-110.04375 57.744375 -109.8375 58.30125 -109.625 58.875 C-107.73105476 62.06027155 -105.13323975 63.89267652 -102.25 66.1875 C-101.76789063 66.67605469 -101.28578125 67.16460937 -100.7890625 67.66796875 C-99.14800457 69.28820108 -97.43140484 70.587946 -95.5625 71.9375 C-91.89974299 74.6441697 -88.4833792 77.54856209 -85.08203125 80.57421875 C-82.86627723 82.52540513 -80.57628009 84.37009368 -78.25 86.1875 C-74.75336327 84.92211938 -72.05135463 83.48261491 -69.140625 81.17578125 C-68.38523437 80.58216797 -67.62984375 79.98855469 -66.8515625 79.37695312 C-66.07554688 78.75755859 -65.29953125 78.13816406 -64.5 77.5 C-62.1953125 75.68164062 -62.1953125 75.68164062 -59.890625 73.86328125 C-58.74932129 72.95896362 -58.74932129 72.95896362 -57.58496094 72.03637695 C-55.19571447 70.14451544 -52.80425328 68.25575328 -50.40625 66.375 C-49.69791016 65.818125 -48.98957031 65.26125 -48.25976562 64.6875 C-43.93585848 61.46032732 -39.32739044 59.0338238 -34.25 57.1875 C-33.63125 57.82365234 -33.63125 57.82365234 -33 58.47265625 C-28.59836769 62.94306406 -23.99315337 67.0857695 -19.25 71.1875 C-17.43129944 72.76370715 -15.61891965 74.34723313 -13.8125 75.9375 C-12.96816406 76.67484375 -12.12382812 77.4121875 -11.25390625 78.171875 C-9.25 80.1875 -9.25 80.1875 -8.25 83.1875 C-5.02778659 81.48162231 -2.57218575 79.60834662 -0.0625 77 C1.3296875 75.6078125 1.3296875 75.6078125 2.75 74.1875 C3.41 74.1875 4.07 74.1875 4.75 74.1875 C5.10578125 73.34638672 5.10578125 73.34638672 5.46875 72.48828125 C9.75710531 64.78754566 18.84300637 57.03002147 26.75 53.1875 C30.67321973 53.32958844 33.31096188 55.91991115 36.3125 58.25 C37.38331838 59.07655336 38.45495048 59.90205347 39.52734375 60.7265625 C40.06601074 61.14196289 40.60467773 61.55736328 41.15966797 61.98535156 C43.51673161 63.76708036 45.95124402 65.43561105 48.375 67.125 C53.20427819 70.59734844 57.23513587 74.52657815 61.265625 78.890625 C64.23389794 81.63487734 67.18674559 83.29289156 70.75 85.1875 C70.78267869 64.07006287 69.96797774 46.83968404 55.75 30.1875 C54.84894531 29.11628906 54.84894531 29.11628906 53.9296875 28.0234375 C52.79087356 26.70077915 51.63639324 25.39140819 50.46484375 24.09765625 C49.28040249 22.7783128 48.12828678 21.42948276 47.00390625 20.05859375 C37.96364945 9.12572194 23.56429815 4.72242202 9.75 3.1875 C3.38136236 2.85046503 -3.00026005 2.94937751 -9.375 3 C-11.22322484 3.0089316 -13.0714508 3.01763523 -14.91967773 3.02612305 C-20.69672026 3.05901545 -26.47325806 3.12132857 -32.25 3.1875 C-33.66548126 3.20200195 -33.66548126 3.20200195 -35.10955811 3.21679688 C-40.63803514 3.27400158 -46.16572007 3.35006919 -51.69354248 3.45297241 C-53.40949753 3.48378514 -55.12552917 3.51064431 -56.84161377 3.53311157 C-71.61478104 3.73992494 -86.21362344 5.00425053 -100.125 10.375 C-100.92035156 10.67833252 -101.71570313 10.98166504 -102.53515625 11.29418945 C-120.24432086 18.36304951 -134.05991822 34.33674534 -141.8125 51.5 C-148.71166803 67.57736964 -154.68188227 84.87337527 -149.25 102.1875 C-151.1875 101.8125 -151.1875 101.8125 -153.25 101.1875 C-153.58 100.5275 -153.91 99.8675 -154.25 99.1875 C-156.89 99.1875 -159.53 99.1875 -162.25 99.1875 C-163.43813473 102.75190418 -163.49187953 105.74224782 -163.5625 109.5 C-163.59988281 110.79550781 -163.63726562 112.09101563 -163.67578125 113.42578125 C-163.08848286 118.61448169 -160.87893228 121.55856772 -157.25 125.1875 C-153.65320934 124.86423447 -153.65320934 124.86423447 -150.25 124.1875 C-149.755 125.1775 -149.755 125.1775 -149.25 126.1875 C-147.765 127.1775 -147.765 127.1775 -146.25 128.1875 C-145.73046875 130.5078125 -145.73046875 130.5078125 -145.4375 133.3125 C-143.58877605 144.52129877 -134.4949572 151.14225813 -126.25 158.1875 C-125.72986328 158.63448242 -125.20972656 159.08146484 -124.67382812 159.54199219 C-102.36296423 178.44077016 -78.04765658 178.38551044 -50.0625 178.3125 C-49.04264008 178.31128143 -48.02278015 178.31006287 -46.97201538 178.30880737 C-28.64434434 178.28329752 -10.33445763 177.97294169 7.98144531 177.31982422 C11.33897009 177.20193238 14.69651532 177.10099813 18.0546875 177.00390625 C26.88064625 176.71057268 35.35335716 176.16736122 43.75 173.1875 C44.61753906 172.88328125 45.48507813 172.5790625 46.37890625 172.265625 C57.50921474 167.57560188 63.77070775 156.71514646 68.75 146.1875 C71.96212877 136.5511137 70.86500756 125.25705083 70.75 115.1875 C71.74 115.1875 72.73 115.1875 73.75 115.1875 C74.75 116.1875 75.75 117.1875 76.75 118.1875 C78.85332891 118.90197643 78.85332891 118.90197643 80.75 119.1875 C84.56109698 114.66182234 85.2548239 111.49301627 85.0234375 105.6015625 C84.6840685 102.60541903 83.91874015 99.96325787 82.75 97.1875 C79.78 96.6925 79.78 96.6925 76.75 96.1875 C76.29625 96.8475 75.8425 97.5075 75.375 98.1875 C74.83875 98.8475 74.3025 99.5075 73.75 100.1875 C73.09 100.1875 72.43 100.1875 71.75 100.1875 C71.4375 97.875 71.4375 97.875 71.75 95.1875 C74.73179242 92.47677962 76.33572036 92.1732145 80.375 92.3125 C83.80087454 93.20068969 84.62827796 93.55050261 86.75 96.1875 C89.16302942 102.20776218 89.39198963 108.94793942 87.75 115.1875 C86.30246245 117.85401653 84.72808897 119.85436943 82.75 122.1875 C80.44 121.8575 78.13 121.5275 75.75 121.1875 C74.41833024 123.85083952 74.59198354 126.32626805 74.51098633 129.25561523 C74.2674543 137.31482637 73.62588317 143.97541359 69.75 151.1875 C69.28078125 152.11046875 68.8115625 153.0334375 68.328125 153.984375 C60.27495045 169.34352234 60.27495045 169.34352234 51.75 173.1875 C50.81414062 173.6103125 49.87828125 174.033125 48.9140625 174.46875 C40.60414709 178.06901562 33.02226085 180.40472114 23.9375 180.8125 C23.16510986 180.85117188 22.39271973 180.88984375 21.59692383 180.9296875 C13.93711809 181.2643791 6.28290568 181.21242585 -1.38232422 181.16845703 C-14.88002446 181.12241494 -28.36818335 181.48743565 -41.8605957 181.83203125 C-50.95678011 182.05971991 -60.04913304 182.23694566 -69.1484375 182.25390625 C-69.95284775 182.25672607 -70.757258 182.2595459 -71.58604431 182.26245117 C-89.12595362 182.2439444 -105.18152977 177.94703097 -119.25 167.1875 C-120.60597259 166.20332634 -121.96283781 165.22038202 -123.3203125 164.23828125 C-137.31325713 153.97587901 -137.31325713 153.97587901 -142.12109375 146.796875 C-143.17096514 145.02892406 -143.17096514 145.02892406 -145.25 144.1875 C-146.21289216 141.87947666 -147.06972192 139.61199298 -147.875 137.25 C-148.10445312 136.60353516 -148.33390625 135.95707031 -148.5703125 135.29101562 C-150.25 130.47691127 -150.25 130.47691127 -150.25 128.1875 C-151.466875 128.27 -152.68375 128.3525 -153.9375 128.4375 C-157.03919353 128.4155799 -158.23504753 128.19547465 -161.0625 126.6875 C-166.69352911 120.25203816 -166.59468015 113.56632993 -166.6484375 105.359375 C-166.22507057 101.98904221 -165.64969801 100.55208048 -163.25 98.1875 C-162.59 98.1875 -161.93 98.1875 -161.25 98.1875 C-161.25 97.5275 -161.25 96.8675 -161.25 96.1875 C-157.785 95.6925 -157.785 95.6925 -154.25 95.1875 C-154.29133057 94.50034912 -154.33266113 93.81319824 -154.37524414 93.10522461 C-154.64410999 84.95501784 -153.30234728 77.58613342 -151.21655273 69.75170898 C-150.69038515 67.76091616 -150.19851341 65.76374764 -149.70898438 63.76367188 C-147.47977106 54.99253384 -144.53173356 46.64092935 -139.25 39.1875 C-137.09619141 37.9777832 -137.09619141 37.9777832 -135.25 37.1875 C-134.52640674 35.54474773 -133.86638086 33.87341128 -133.25 32.1875 C-124.64817502 19.19618539 -109.98822371 9.17185554 -95.25 4.1875 C-92.61278632 3.75916275 -90.02694997 3.40530721 -87.375 3.125 C-86.71242188 3.04701172 -86.04984375 2.96902344 -85.3671875 2.88867188 C-70.68198354 1.24338513 -55.94692708 0.9170161 -41.1875 0.625 C-40.18086304 0.60448578 -39.17422607 0.58397156 -38.13708496 0.56283569 C-25.42581687 0.30648902 -12.71378467 0.07256633 0 0 Z " fill="#231F20" transform="translate(191.25,22.8125)"/>
<path d="M0 0 C3.97101777 3.16351416 4.44076235 7.16073017 5 12 C5.20970816 19.25148744 3.67554442 23.4852553 -1 29 C-3.31 28.67 -5.62 28.34 -8 28 C-9.33166976 30.66333952 -9.15801646 33.13876805 -9.23901367 36.06811523 C-9.4825457 44.12732637 -10.12411683 50.78791359 -14 58 C-14.46921875 58.92296875 -14.9384375 59.8459375 -15.421875 60.796875 C-23.47504955 76.15602234 -23.47504955 76.15602234 -32 80 C-32.93585938 80.4228125 -33.87171875 80.845625 -34.8359375 81.28125 C-43.14585291 84.88151562 -50.72773915 87.21722114 -59.8125 87.625 C-60.58489014 87.66367188 -61.35728027 87.70234375 -62.15307617 87.7421875 C-69.81288191 88.0768791 -77.46709432 88.02492585 -85.13232422 87.98095703 C-98.63002446 87.93491494 -112.11818335 88.29993565 -125.6105957 88.64453125 C-134.70678011 88.87221991 -143.79913304 89.04944566 -152.8984375 89.06640625 C-153.70284775 89.06922607 -154.507258 89.0720459 -155.33604431 89.07495117 C-169.56499329 89.05993787 -181.13482928 85.88931928 -194 80 C-192.515 79.01 -192.515 79.01 -191 78 C-188.78515625 78.828125 -188.78515625 78.828125 -186.0625 80.25 C-180.69156478 82.62813377 -175.88859411 83.64085398 -170.0546875 84.16015625 C-169.18996323 84.2410701 -168.32523895 84.32198395 -167.43431091 84.40534973 C-156.65403084 85.32085067 -145.87278173 85.25832878 -135.0625 85.1875 C-132.86311956 85.17993854 -130.66373799 85.17270023 -128.46435547 85.16577148 C-110.87570248 85.09058357 -93.29746848 84.76800343 -75.72021484 84.13232422 C-72.38271769 84.01361288 -69.04522577 83.91287326 -65.70703125 83.81640625 C-56.87703623 83.52348664 -48.40053533 82.98124261 -40 80 C-39.13246094 79.69578125 -38.26492187 79.3915625 -37.37109375 79.078125 C-26.24078526 74.38810188 -19.97929225 63.52764646 -15 53 C-11.78787123 43.3636137 -12.88499244 32.06955083 -13 22 C-12.01 22 -11.02 22 -10 22 C-9 23 -8 24 -7 25 C-4.89667109 25.71447643 -4.89667109 25.71447643 -3 26 C0.81109698 21.47432234 1.5048239 18.30551627 1.2734375 12.4140625 C0.9340685 9.41791903 0.16874015 6.77575787 -1 4 C-2.98 3.67 -4.96 3.34 -7 3 C-7.45375 3.66 -7.9075 4.32 -8.375 5 C-8.91125 5.66 -9.4475 6.32 -10 7 C-10.66 7 -11.32 7 -12 7 C-12.3125 4.6875 -12.3125 4.6875 -12 2 C-8.08520568 -1.55890392 -4.95660668 -1.28504618 0 0 Z " fill="#272424" transform="translate(275,116)"/>
<path d="M0 0 C4.5620097 1.5206699 7.0799421 4.78314923 9.9375 8.5625 C12.35259126 11.41669876 14.85108235 12.97993962 18 15 C22.60124734 18.40611816 26.96186621 21.94584078 31.125 25.875 C34.73677073 29.11689059 37.18195303 29.89962402 42 30 C40.68 31.32 39.36 32.64 38 34 C34.51122524 32.7078612 31.52496913 31.19763145 28.4375 29.125 C27.69371094 28.63257812 26.94992188 28.14015625 26.18359375 27.6328125 C24 26 24 26 22.18920898 23.94970703 C19.57019927 21.61721996 18.2446644 21.41197561 14.7890625 21.171875 C13.29246094 21.05585937 13.29246094 21.05585937 11.765625 20.9375 C10.21101563 20.8446875 10.21101563 20.8446875 8.625 20.75 C7.59632812 20.67265625 6.56765625 20.5953125 5.5078125 20.515625 C-8.48216092 19.3073661 -8.48216092 19.3073661 -20.5625 25.625 C-24.14636308 28.96993887 -27.11896112 32.50516607 -29.90625 36.53125 C-30.44765625 37.25828125 -30.44765625 37.25828125 -31 38 C-31.33 38 -31.66 38 -32 38 C-32.31640625 35.83203125 -32.31640625 35.83203125 -32 33 C-29.83984375 30.38671875 -29.83984375 30.38671875 -26.9375 27.6875 C-25.91733848 26.71817547 -24.89910953 25.74681301 -23.8828125 24.7734375 C-23.13692871 24.06525879 -23.13692871 24.06525879 -22.37597656 23.34277344 C-20.57814213 21.58832181 -18.93864611 19.72605798 -17.3125 17.8125 C-13.75674776 13.65133191 -9.90488394 9.83120688 -6 6 C-5.01962374 5.02204442 -4.04025678 4.04307452 -3.0625 3.0625 C-2.04166667 2.04166667 -1.02083333 1.02083333 0 0 Z " fill="#201F24" transform="translate(78,80)"/>
<path d="M0 0 C2.89539731 1.31060598 5.18056383 3.10728459 7.6875 5.05859375 C8.74635896 5.87374447 9.80627343 6.68752579 10.8671875 7.5 C11.39795898 7.90750488 11.92873047 8.31500977 12.47558594 8.73486328 C16.25147014 11.58710812 20.16474716 14.25173284 24.0625 16.93359375 C23.5675 18.41859375 23.5675 18.41859375 23.0625 19.93359375 C18.26302615 18.382433 14.81854535 15.66343003 10.9375 12.55859375 C10.00744141 11.83542969 10.00744141 11.83542969 9.05859375 11.09765625 C5.88748367 8.58804655 3.44863913 6.22428235 1.0625 2.93359375 C-1.16218387 2.70166201 -1.16218387 2.70166201 -2.9375 4.87109375 C-3.37449219 5.32613281 -3.81148438 5.78117187 -4.26171875 6.25 C-9.81981642 11.83400955 -15.90444002 16.92119521 -21.84375 22.09375 C-25.91045412 25.66729038 -29.92095603 29.30388905 -33.9375 32.93359375 C-37.53776068 31.68213327 -39.82937231 30.39530505 -42.4375 27.62109375 C-43.03820312 26.9971875 -43.63890625 26.37328125 -44.2578125 25.73046875 C-45.61300471 24.28072825 -46.96349791 22.82659601 -48.3125 21.37109375 C-51.26653532 18.62806095 -54.39898061 16.54205703 -57.77734375 14.359375 C-60.29348625 12.69862995 -62.62841483 10.87024583 -64.9375 8.93359375 C-70.03305587 10.49767364 -73.54915295 13.63573839 -77.5625 16.99609375 C-78.26745605 17.57593018 -78.97241211 18.1557666 -79.69873047 18.75317383 C-82.89390936 21.38430509 -86.0679551 24.03857284 -89.21875 26.72265625 C-90.1571875 27.51414062 -91.095625 28.305625 -92.0625 29.12109375 C-93.27292969 30.16330078 -93.27292969 30.16330078 -94.5078125 31.2265625 C-97.22285683 33.13407757 -99.75814357 34.03507998 -102.9375 34.93359375 C-103.4325 33.44859375 -103.4325 33.44859375 -103.9375 31.93359375 C-103.41430176 31.55138672 -102.89110352 31.16917969 -102.35205078 30.77539062 C-90.60815139 22.25296403 -90.60815139 22.25296403 -79.1875 13.30859375 C-74.15823401 9.21520856 -69.06727023 6.16260111 -62.9375 3.93359375 C-62.525 4.35769531 -62.1125 4.78179687 -61.6875 5.21875 C-57.28586769 9.68915781 -52.68065337 13.83186325 -47.9375 17.93359375 C-46.11879944 19.5098009 -44.30641965 21.09332688 -42.5 22.68359375 C-41.23349609 23.78960937 -41.23349609 23.78960937 -39.94140625 24.91796875 C-37.9375 26.93359375 -37.9375 26.93359375 -36.9375 29.93359375 C-33.71528659 28.22771606 -31.25968575 26.35444037 -28.75 23.74609375 C-27.821875 22.81796875 -26.89375 21.88984375 -25.9375 20.93359375 C-25.2775 20.93359375 -24.6175 20.93359375 -23.9375 20.93359375 C-23.7003125 20.37285156 -23.463125 19.81210938 -23.21875 19.234375 C-19.66830826 12.8587342 -7.92577621 -0.27164959 0 0 Z " fill="#363435" transform="translate(219.9375,76.06640625)"/>
<path d="M0 0 C0.66 0.33 1.32 0.66 2 1 C1.52691406 1.44988281 1.05382812 1.89976563 0.56640625 2.36328125 C-17.35048385 19.79121138 -32.05133508 44.52922233 -32.5 70.3125 C-32.25145991 75.08446968 -31.4288556 79.44552276 -30 84 C-31.9375 83.625 -31.9375 83.625 -34 83 C-34.33 82.34 -34.66 81.68 -35 81 C-37.64 81 -40.28 81 -43 81 C-44.18813473 84.56440418 -44.24187953 87.55474782 -44.3125 91.3125 C-44.34988281 92.60800781 -44.38726562 93.90351563 -44.42578125 95.23828125 C-43.83848286 100.42698169 -41.62893228 103.37106772 -38 107 C-34.40320934 106.67673447 -34.40320934 106.67673447 -31 106 C-30.505 106.99 -30.505 106.99 -30 108 C-28.515 108.99 -28.515 108.99 -27 110 C-26.48046875 112.3203125 -26.48046875 112.3203125 -26.1875 115.125 C-23.68547388 130.29476468 -5.78201589 141.52327447 6 150 C7.65285732 151.02266342 9.31473534 152.03167113 11 153 C8 154 8 154 4.9375 152.5625 C0.87121957 150.07992879 -2.77054552 147.09556972 -6.4453125 144.07421875 C-8.83091198 142.13728707 -11.27538933 140.32054691 -13.75 138.5 C-17.49975191 135.61965959 -20.16291743 132.5060079 -22.80859375 128.6015625 C-23.92487583 126.8497659 -23.92487583 126.8497659 -26 126 C-26.96289216 123.69197666 -27.81972192 121.42449298 -28.625 119.0625 C-28.85445312 118.41603516 -29.08390625 117.76957031 -29.3203125 117.10351562 C-31 112.28941127 -31 112.28941127 -31 110 C-32.216875 110.0825 -33.43375 110.165 -34.6875 110.25 C-37.78919353 110.2280799 -38.98504753 110.00797465 -41.8125 108.5 C-47.44352911 102.06453816 -47.34468015 95.37882993 -47.3984375 87.171875 C-46.97507057 83.80154221 -46.39969801 82.36458048 -44 80 C-43.34 80 -42.68 80 -42 80 C-42 79.34 -42 78.68 -42 78 C-38.535 77.505 -38.535 77.505 -35 77 C-35.04133057 76.31284912 -35.08266113 75.62569824 -35.12524414 74.91772461 C-35.39410999 66.76751784 -34.05234728 59.39863342 -31.96655273 51.56420898 C-31.44038515 49.57341616 -30.94851341 47.57624764 -30.45898438 45.57617188 C-28.22977106 36.80503384 -25.28173356 28.45342935 -20 21 C-17.84423828 19.78881836 -17.84423828 19.78881836 -16 19 C-15.28913516 17.35169985 -14.62870171 15.68135552 -14 14 C-12.62853263 12.07617347 -11.18511524 10.20234229 -9.6875 8.375 C-8.92824219 7.43398438 -8.16898438 6.49296875 -7.38671875 5.5234375 C-5.05063244 3.05353283 -3.0674723 1.44895677 0 0 Z " fill="#302C2C" transform="translate(72,41)"/>
<path d="M0 0 C0.66 0.33 1.32 0.66 2 1 C1.52691406 1.44988281 1.05382812 1.89976563 0.56640625 2.36328125 C-19.1286802 21.52087996 -32.02322695 46.86661357 -32.9921875 74.67578125 C-32.99476562 75.44277344 -32.99734375 76.20976563 -33 77 C-33.66 76.67 -34.32 76.34 -35 76 C-35.57065574 67.49912061 -34.13041355 59.81798874 -31.96655273 51.63964844 C-31.44137874 49.63977037 -30.94912401 47.63371261 -30.45898438 45.625 C-28.22741695 36.81580411 -25.31583977 28.49494456 -20 21 C-17.84423828 19.7890625 -17.84423828 19.7890625 -16 19 C-15.28913516 17.35169985 -14.62870171 15.68135552 -14 14 C-12.62853263 12.07617347 -11.18511524 10.20234229 -9.6875 8.375 C-8.92824219 7.43398438 -8.16898438 6.49296875 -7.38671875 5.5234375 C-5.05063244 3.05353283 -3.0674723 1.44895677 0 0 Z " fill="#151212" transform="translate(72,41)"/>
<path d="M0 0 C0.70640625 0.33773437 1.4128125 0.67546875 2.140625 1.0234375 C23.02560791 10.10158334 47.71664387 7.22968889 70 7 C70.495 8.485 70.495 8.485 71 10 C21.54957729 12.78034505 21.54957729 12.78034505 -2 2 C-1.34 1.34 -0.68 0.68 0 0 Z " fill="#423E3E" transform="translate(83,194)"/>
<path d="M0 0 C2.72386255 1.4484031 4.57593434 3.33403268 6.71875 5.546875 C7.51796875 6.3615625 8.3171875 7.17625 9.140625 8.015625 C10.96875 10.046875 10.96875 10.046875 10.96875 11.046875 C5.95266475 12.0645153 1.18266694 12.16543934 -3.90625 12.109375 C-4.69 12.10486328 -5.47375 12.10035156 -6.28125 12.09570312 C-8.19795014 12.08401593 -10.11461048 12.06608408 -12.03125 12.046875 C-12.03125 9.046875 -12.03125 9.046875 -9.984375 6.75 C-9.09234375 5.94046875 -8.2003125 5.1309375 -7.28125 4.296875 C-6.39953125 3.47703125 -5.5178125 2.6571875 -4.609375 1.8125 C-2.03125 0.046875 -2.03125 0.046875 0 0 Z " fill="#F7F6F7" transform="translate(80.03125,84.953125)"/>
<path d="M0 0 C3.94709541 3.34645046 7.8165393 6.74646507 11.625 10.25 C15.56056008 13.80586592 19.61426484 17.1389846 23.8125 20.375 C24.35148926 20.79168945 24.89047852 21.20837891 25.44580078 21.63769531 C28.52021248 23.97855982 31.64764263 26.07905585 35 28 C32 29 32 29 28.9375 27.5625 C24.87121957 25.07992879 21.22945448 22.09556972 17.5546875 19.07421875 C15.16908802 17.13728707 12.72461067 15.32054691 10.25 13.5 C6.05259857 10.25689232 2.6908427 6.59026107 0 2 C0 1.34 0 0.68 0 0 Z " fill="#181616" transform="translate(48,166)"/>
<path d="M0 0 C3.33797211 1.4358461 5.35408904 3.22131811 7.8125 5.875 C11.29173259 9.46520248 14.54234293 11.77117147 19 14 C19 10.7 19 7.4 19 4 C22.23945545 8.31927394 22.35373864 9.15201511 22.1875 14.25 C22.16042969 15.32765625 22.13335937 16.4053125 22.10546875 17.515625 C22.07066406 18.33546875 22.03585937 19.1553125 22 20 C21.01 19.34 20.02 18.68 19 18 C19 17.01 19 16.02 19 15 C18.67 15.66 18.34 16.32 18 17 C13.2687747 15.50592885 13.2687747 15.50592885 11.9375 13 C11.628125 12.34 11.31875 11.68 11 11 C9.67661368 10.31379969 8.34130719 9.65047464 7 9 C5.56241654 7.98739559 4.1454872 6.94487352 2.75 5.875 C2.04359375 5.33617188 1.3371875 4.79734375 0.609375 4.2421875 C0.07828125 3.83226563 -0.4528125 3.42234375 -1 3 C-0.67 2.01 -0.34 1.02 0 0 Z " fill="#2E2B2B" transform="translate(243,94)"/>
<path d="M0 0 C0 0.99 0 1.98 0 3 C-2.1171875 4.53515625 -2.1171875 4.53515625 -4.875 6.0625 C-8.69455032 8.18803738 -8.69455032 8.18803738 -12 11 C-16.4818722 10.68953283 -19.94214146 8.58769919 -23.8125 6.4375 C-24.40998047 6.10814453 -25.00746094 5.77878906 -25.62304688 5.43945312 C-27.08533998 4.63226733 -28.5431399 3.81695083 -30 3 C-30 2.34 -30 1.68 -30 1 C-25.87248551 1.60698743 -22.6678852 3.03810791 -19 5 C-19 5.66 -19 6.32 -19 7 C-16.77838353 7.86900377 -16.77838353 7.86900377 -14 8 C-11.10940906 6.37726483 -11.10940906 6.37726483 -8.375 4.0625 C-3.28816467 0 -3.28816467 0 0 0 Z " fill="#221F1E" transform="translate(167,173)"/>
<path d="M0 0 C-0.33 0.99 -0.66 1.98 -1 3 C-3.44140625 4.02734375 -3.44140625 4.02734375 -6.5625 4.9375 C-13.63013788 7.13669373 -19.73048944 10.0815559 -26 14 C-26 13.01 -26 12.02 -26 11 C-7.86984764 -2.64665255 -7.86984764 -2.64665255 0 0 Z " fill="#282526" transform="translate(100,28)"/>
<path d="M0 0 C6.55258692 4.07127643 12.92133531 8.24505598 19 13 C18.67 13.99 18.34 14.98 18 16 C13.09456622 14.44301719 9.62049764 11.56676327 5.6875 8.375 C5.04232422 7.859375 4.39714844 7.34375 3.73242188 6.8125 C2.1506196 5.54705818 0.57470937 4.27425738 -1 3 C-0.67 2.01 -0.34 1.02 0 0 Z " fill="#333031" transform="translate(225,80)"/>
<path d="M0 0 C0.66 2.64 1.32 5.28 2 8 C0.68 7.67 -0.64 7.34 -2 7 C-2.33 6.34 -2.66 5.68 -3 5 C-5.64 5 -8.28 5 -11 5 C-11.66 9.29 -12.32 13.58 -13 18 C-15 16 -15 16 -15.3125 12.125 C-15.2447898 9.26033786 -15.04049306 8.07362374 -13.625 5.5 C-12 4 -12 4 -10 4 C-10 3.34 -10 2.68 -10 2 C-3.375 0 -3.375 0 0 0 Z " fill="#2F2C2C" transform="translate(40,117)"/>
<path d="M0 0 C-1.39920603 3.28385089 -2.97511543 5.03439449 -5.75 7.25 C-9.41050908 10.32376081 -12.14603025 13.58299167 -14.87109375 17.49609375 C-15.24363281 17.99238281 -15.61617187 18.48867187 -16 19 C-16.33 19 -16.66 19 -17 19 C-17.36328125 16.88671875 -17.36328125 16.88671875 -17 14 C-15.11679884 11.72556015 -13.32746674 9.80930865 -11.1875 7.8125 C-10.36668945 7.01295898 -10.36668945 7.01295898 -9.52929688 6.19726562 C-3.09817217 0 -3.09817217 0 0 0 Z " fill="#0C0B0E" transform="translate(63,99)"/>
<path d="M0 0 C3.45825936 -0.05898369 6.9163862 -0.09392131 10.375 -0.125 C11.34050781 -0.14175781 12.30601562 -0.15851562 13.30078125 -0.17578125 C21.20322163 -0.22881776 28.93290845 0.1720758 36 4 C35.34 4 34.68 4 34 4 C33.67 4.66 33.34 5.32 33 6 C32.20980469 5.80664062 31.41960937 5.61328125 30.60546875 5.4140625 C20.45643473 3.0710855 10.3598294 1.93879051 0 1 C0 0.67 0 0.34 0 0 Z " fill="#2F2C2C" transform="translate(182,23)"/>
<path d="M0 0 C2.38957612 1.106092 3.3813209 2.64612552 4.7890625 4.828125 C3.7990625 4.828125 2.8090625 4.828125 1.7890625 4.828125 C1.4590625 4.168125 1.1290625 3.508125 0.7890625 2.828125 C0.1290625 2.828125 -0.5309375 2.828125 -1.2109375 2.828125 C-1.9534375 3.570625 -2.6959375 4.313125 -3.4609375 5.078125 C-6.25664583 7.87383333 -8.88376749 9.73897174 -12.2109375 11.828125 C-12.8709375 11.498125 -13.5309375 11.168125 -14.2109375 10.828125 C-12.71900996 7.04801645 -10.62534557 5.33382801 -7.3359375 3.015625 C-6.04042969 2.07783203 -6.04042969 2.07783203 -4.71875 1.12109375 C-2.2109375 -0.171875 -2.2109375 -0.171875 0 0 Z " fill="#373638" transform="translate(220.2109375,76.171875)"/>
<path d="M0 0 C-4.94688835 4.94688835 -13.41645026 5.2165015 -20.0625 5.3125 C-25.70763723 5.29236277 -25.70763723 5.29236277 -28 3 C-26.02 3 -24.04 3 -22 3 C-22 2.67 -22 2.34 -22 2 C-7.40318907 -0.29612756 -7.40318907 -0.29612756 0 0 Z " fill="#1D1A1A" transform="translate(236,198)"/>
<path d="M0 0 C0.99 0 1.98 0 3 0 C4.0024305 5.34629602 3.84888195 9.62374766 3 15 C2.01 15 1.02 15 0 15 C-1.37252731 12.25494537 -1.13229255 9.99672588 -1.125 6.9375 C-1.12757812 5.85339844 -1.13015625 4.76929688 -1.1328125 3.65234375 C-1 1 -1 1 0 0 Z " fill="#101012" transform="translate(102,125)"/>
<path d="M0 0 C0 0.33 0 0.66 0 1 C-2.97 1 -5.94 1 -9 1 C-9.33 1.66 -9.66 2.32 -10 3 C-15.94 2.67 -21.88 2.34 -28 2 C-28 1.34 -28 0.68 -28 0 C-8.46855133 -1.90883268 -8.46855133 -1.90883268 0 0 Z " fill="#454241" transform="translate(219,201)"/>
<path d="M0 0 C3.01017797 3.92631909 4.20070404 5.66119077 3.5625 10.625 C3.46066406 11.44226563 3.35882813 12.25953125 3.25390625 13.1015625 C3.17011719 13.72804687 3.08632812 14.35453125 3 15 C1.68 15 0.36 15 -1 15 C-1.02715383 13.25008666 -1.04646551 11.50005055 -1.0625 9.75 C-1.07410156 8.77546875 -1.08570313 7.8009375 -1.09765625 6.796875 C-1.01195577 4.34241322 -0.70706066 2.33831086 0 0 Z " fill="#060506" transform="translate(194,119)"/>
<path d="M0 0 C4.6005415 1.53351383 7.11369183 4.87197142 10.0625 8.625 C11.88606599 10.86033895 13.62495353 12.38836133 16 14 C12.81034724 13.92220359 10.65960315 13.57570626 8.21875 11.4453125 C7.03101536 10.18985615 5.85128322 8.92678047 4.6796875 7.65625 C2.65765475 5.66243166 0.73002214 4.74455149 -2 4 C-1.34 2.68 -0.68 1.36 0 0 Z " fill="#343132" transform="translate(78,80)"/>
<path d="M0 0 C2 2 2 2 2.125 4.625 C2.08375 5.40875 2.0425 6.1925 2 7 C1.34 6.01 0.68 5.02 0 4 C-3.56769552 3.26393501 -3.56769552 3.26393501 -7 3 C-7.680625 3.99 -7.680625 3.99 -8.375 5 C-8.91125 5.66 -9.4475 6.32 -10 7 C-10.66 7 -11.32 7 -12 7 C-12.3125 4.6875 -12.3125 4.6875 -12 2 C-8.07829697 -1.56518458 -4.97015061 -1.21909355 0 0 Z " fill="#3E3C3E" transform="translate(275,116)"/>
<path d="M0 0 C0.82242188 0.33773437 1.64484375 0.67546875 2.4921875 1.0234375 C9.27914443 3.73508542 15.76611263 5.90593577 23 7 C19.7249684 9.1833544 18.4028222 9.254241 14.60546875 8.69140625 C8.83917528 7.16122043 3.40957023 4.48445149 -2 2 C-1.34 1.34 -0.68 0.68 0 0 Z " fill="#2C2827" transform="translate(83,194)"/>
<path d="M0 0 C8.15384615 2 8.15384615 2 10 5 C9.6875 7.1875 9.6875 7.1875 9 9 C6.36 8.67 3.72 8.34 1 8 C2.32 7.34 3.64 6.68 5 6 C2.69 5.67 0.38 5.34 -2 5 C-1.01 4.01 -0.02 3.02 1 2 C0.67 1.34 0.34 0.68 0 0 Z " fill="#18171B" transform="translate(89,93)"/>
<path d="M0 0 C0.66 0.28875 1.32 0.5775 2 0.875 C-5.25 8.125 -5.25 8.125 -10 8.875 C-10.33 7.885 -10.66 6.895 -11 5.875 C-3.9452954 -0.16438731 -3.9452954 -0.16438731 0 0 Z " fill="#58565A" transform="translate(127,102.125)"/>
<path d="M0 0 C-1.50349377 3.66786393 -3.63728792 5.68910393 -6.625 8.25 C-7.44226563 8.95640625 -8.25953125 9.6628125 -9.1015625 10.390625 C-9.72804688 10.92171875 -10.35453125 11.4528125 -11 12 C-11.66 11.67 -12.32 11.34 -13 11 C-11.56590028 7.64138305 -9.80630679 5.64125061 -7.0625 3.25 C-6.37285156 2.63640625 -5.68320313 2.0228125 -4.97265625 1.390625 C-3 0 -3 0 0 0 Z " fill="#1D1B1E" transform="translate(78,84)"/>
<path d="M0 0 C5.03163018 4.29785078 10.02718443 8.63425542 15 13 C14.67 13.99 14.34 14.98 14 16 C13.55269531 15.60167969 13.10539063 15.20335938 12.64453125 14.79296875 C9.85858576 12.35155383 7.28665114 10.16467193 4.0625 8.3125 C3.381875 7.879375 2.70125 7.44625 2 7 C2 6.01 2 5.02 2 4 C1.34 3.67 0.68 3.34 0 3 C0 2.01 0 1.02 0 0 Z " fill="#252222" transform="translate(157,81)"/>
<path d="M0 0 C1.32 0 2.64 0 4 0 C6.26954631 3.40431947 6.36549949 5.16524202 6.625 9.1875 C6.69976562 10.27417969 6.77453125 11.36085937 6.8515625 12.48046875 C6.90054687 13.31191406 6.94953125 14.14335937 7 15 C6.34 15 5.68 15 5 15 C4.67 15.99 4.34 16.98 4 18 C3.96261719 17.28714844 3.92523438 16.57429688 3.88671875 15.83984375 C3.47904918 9.9006577 2.71337774 5.30878253 0 0 Z " fill="#272625" transform="translate(273,119)"/>
<path d="M0 0 C0.74056641 0.00902344 1.48113281 0.01804688 2.24414062 0.02734375 C4.05873467 0.05075787 5.87316071 0.08662385 7.6875 0.125 C8.0175 1.115 8.3475 2.105 8.6875 3.125 C-2.2025 3.62 -2.2025 3.62 -13.3125 4.125 C-13.3125 3.465 -13.3125 2.805 -13.3125 2.125 C-8.90220217 -0.08449832 -4.82309676 -0.1120648 0 0 Z " fill="#5A5757" transform="translate(145.3125,200.875)"/>
<path d="M0 0 C5.28 0 10.56 0 16 0 C15.01 0.33 14.02 0.66 13 1 C13 1.66 13 2.32 13 3 C9.04 3 5.08 3 1 3 C0.67 2.01 0.34 1.02 0 0 Z " fill="#1F1B1A" transform="translate(119,202)"/>
<path d="M0 0 C4.82675589 2.41337795 7.69984002 5.86062408 11 10 C10.01 10.33 9.02 10.66 8 11 C5.03 8.36 2.06 5.72 -1 3 C-0.67 2.01 -0.34 1.02 0 0 Z " fill="#4A4747" transform="translate(172,95)"/>
<path d="M0 0 C4.39990894 -0.36933542 6.93953196 0.72260049 10.75 2.875 C11.71421875 3.40867187 12.6784375 3.94234375 13.671875 4.4921875 C16 6 16 6 17 8 C13.26345828 7.19534869 9.80577218 5.82425115 6.25 4.4375 C5.07953125 3.98246094 3.9090625 3.52742188 2.703125 3.05859375 C1.81109375 2.70925781 0.9190625 2.35992188 0 2 C0 1.34 0 0.68 0 0 Z " fill="#1B1717" transform="translate(216,27)"/>
<path d="M0 0 C1.65 0 3.3 0 5 0 C5 0.66 5 1.32 5 2 C6.65 2.33 8.3 2.66 10 3 C10 3.33 10 3.66 10 4 C4.42289352 5.06795656 -0.39436958 4.82622671 -6 4 C-6 3.67 -6 3.34 -6 3 C-4.35 3 -2.7 3 -1 3 C-0.67 2.01 -0.34 1.02 0 0 Z " fill="#3A393E" transform="translate(85,96)"/>
<path d="M0 0 C5.28 0 10.56 0 16 0 C16 0.66 16 1.32 16 2 C14.08416353 2.1958009 12.16727461 2.38132214 10.25 2.5625 C8.64898437 2.71912109 8.64898437 2.71912109 7.015625 2.87890625 C4.35858796 2.98560074 2.50039428 2.81930395 0 2 C0 1.34 0 0.68 0 0 Z " fill="#1B1A1D" transform="translate(68,97)"/>
<path d="M0 0 C0.66 0.33 1.32 0.66 2 1 C1.43410156 1.55429687 0.86820313 2.10859375 0.28515625 2.6796875 C-0.44832031 3.40414062 -1.18179688 4.12859375 -1.9375 4.875 C-2.66839844 5.59429687 -3.39929688 6.31359375 -4.15234375 7.0546875 C-6.05667999 8.87027192 -6.05667999 8.87027192 -7 11 C-7.99 10.67 -8.98 10.34 -10 10 C-7.19372222 5.25091453 -4.74908547 2.80627778 0 0 Z " fill="#0E0D0E" transform="translate(72,41)"/>
<path d="M0 0 C0.99 0.33 1.98 0.66 3 1 C-3.15034169 9.44646925 -3.15034169 9.44646925 -7 13 C-7.66 12.34 -8.32 11.68 -9 11 C-8.38125 10.773125 -7.7625 10.54625 -7.125 10.3125 C-4.34632138 8.59625732 -4.08184135 7.02915578 -3 4 C-2.04175747 2.63634717 -1.05278825 1.29205831 0 0 Z " fill="#2C2A2A" transform="translate(61,51)"/>
<path d="M0 0 C0 1.32 0 2.64 0 4 C1.32 4.66 2.64 5.32 4 6 C3.01 6.66 2.02 7.32 1 8 C0.608125 7.525625 0.21625 7.05125 -0.1875 6.5625 C-2.40808374 4.64820367 -4.13375709 4.38733012 -7 4 C-2.25 0 -2.25 0 0 0 Z " fill="#474548" transform="translate(157,80)"/>
<path d="M0 0 C2.42285223 3.01431321 4.12756366 6.05517439 5.75 9.5625 C6.19859375 10.51253906 6.6471875 11.46257812 7.109375 12.44140625 C8 15 8 15 7 18 C5 17 5 17 4 14.41796875 C3.67 13.35191406 3.34 12.28585938 3 11.1875 C1.88862464 7.62328448 0.78245805 4.28640704 -1 1 C-0.67 0.67 -0.34 0.34 0 0 Z " fill="#353231" transform="translate(254,59)"/>
<path d="M0 0 C3.62276315 1.3255581 6.63505348 2.94346955 9.8125 5.125 C10.60269531 5.66382813 11.39289063 6.20265625 12.20703125 6.7578125 C12.79871094 7.16773438 13.39039062 7.57765625 14 8 C11 9 11 9 7.5625 7.375 C4.30975268 5.40405565 2.1820091 3.14209311 0 0 Z " fill="#110D0D" transform="translate(69,186)"/>
<path d="M0 0 C3.7952131 1.49097658 5.61042731 3.75700849 8 7 C7.01 7.33 6.02 7.66 5 8 C2.7363436 6.59554165 0.9791315 4.8032087 -1 3 C-0.67 2.01 -0.34 1.02 0 0 Z " fill="#333131" transform="translate(243,94)"/>
<path d="M0 0 C0.65234375 1.765625 0.65234375 1.765625 1 4 C0.00390625 5.921875 0.00390625 5.921875 -1.4375 7.75 C-1.91058594 8.36359375 -2.38367188 8.9771875 -2.87109375 9.609375 C-3.24363281 10.06828125 -3.61617188 10.5271875 -4 11 C-5.32 10.34 -6.64 9.68 -8 9 C-6.8553125 7.88625 -6.8553125 7.88625 -5.6875 6.75 C-3.5606298 4.5736677 -1.7440044 2.47832204 0 0 Z " fill="#434140" transform="translate(278,134)"/>
<path d="M0 0 C4.12751449 0.60698743 7.3321148 2.03810791 11 4 C11 4.33 11 4.66 11 5 C6.37390802 5.3227506 3.71973879 4.84450614 0 2 C0 1.34 0 0.68 0 0 Z " fill="#363232" transform="translate(137,174)"/>
<path d="M0 0 C0.66 0.99 1.32 1.98 2 3 C0.35830472 5.02054804 -1.30911778 7.02043058 -3 9 C-3.33 9 -3.66 9 -4 9 C-4.25 6.75 -4.25 6.75 -4 4 C-2 1.6875 -2 1.6875 0 0 Z " fill="#333132" transform="translate(50,109)"/>
<path d="M0 0 C-1 2 -1 2 -2.640625 2.65234375 C-5.75714706 3.11156637 -8.61535608 2.84461795 -11.75 2.5625 C-12.92046875 2.46066406 -14.0909375 2.35882813 -15.296875 2.25390625 C-16.63492188 2.12822266 -16.63492188 2.12822266 -18 2 C-18 1.67 -18 1.34 -18 1 C-16.12528812 0.83012319 -14.25021305 0.66425224 -12.375 0.5 C-11.33085937 0.4071875 -10.28671875 0.314375 -9.2109375 0.21875 C-6.12853212 0.00875645 -3.08834771 -0.03709727 0 0 Z " fill="#120D0D" transform="translate(159,201)"/>
<path d="M0 0 C2.46301423 2.46301423 2.76766521 4.27360036 3.625 7.625 C3.88539062 8.62789062 4.14578125 9.63078125 4.4140625 10.6640625 C4.60742188 11.43492187 4.80078125 12.20578125 5 13 C4.34 13 3.68 13 3 13 C0.78145293 8.37802694 -0.38281159 5.23175837 0 0 Z " fill="#0E0D0D" transform="translate(25,133)"/>
<path d="M0 0 C3.53647504 1.67517239 4.7911563 2.49280817 6.3125 6.1875 C6.539375 7.115625 6.76625 8.04375 7 9 C5.8225266 8.26708288 4.65823146 7.51296199 3.5 6.75 C2.52546875 6.12351562 2.52546875 6.12351562 1.53125 5.484375 C1.0259375 4.99453125 0.520625 4.5046875 0 4 C0 2.68 0 1.36 0 0 Z " fill="#414043" transform="translate(99,98)"/>
<path d="M0 0 C2.88437779 1.29299694 4.87219421 2.65941363 7 5 C6.67 5.66 6.34 6.32 6 7 C3.08482708 5.92598892 1.22189824 5.22189824 -1 3 C-0.34 3 0.32 3 1 3 C0.67 2.01 0.34 1.02 0 0 Z " fill="#4B4848" transform="translate(237,89)"/>
<path d="M0 0 C2.64 1.65 5.28 3.3 8 5 C6.02 5.99 6.02 5.99 4 7 C2.35 5.68 0.7 4.36 -1 3 C-0.67 2.01 -0.34 1.02 0 0 Z " fill="#504D4E" transform="translate(225,80)"/>
<path d="M0 0 C0.99 0.66 1.98 1.32 3 2 C2.67 3.32 2.34 4.64 2 6 C-0.64 5.67 -3.28 5.34 -6 5 C-2.25 2 -2.25 2 0 2 C0 1.34 0 0.68 0 0 Z " fill="#0F0E13" transform="translate(96,96)"/>
<path d="M0 0 C0 0.66 0 1.32 0 2 C-1.6796875 3.5078125 -1.6796875 3.5078125 -3.875 5.125 C-4.95394531 5.93324219 -4.95394531 5.93324219 -6.0546875 6.7578125 C-8 8 -8 8 -10 8 C-10 6 -10 6 -8.57421875 4.4921875 C-7.95160156 3.95851563 -7.32898438 3.42484375 -6.6875 2.875 C-6.07261719 2.33617188 -5.45773438 1.79734375 -4.82421875 1.2421875 C-3 0 -3 0 0 0 Z " fill="#242123" transform="translate(152,84)"/>
<path d="M0 0 C0.99 0.99 1.98 1.98 3 3 C2.01 5.31 1.02 7.62 0 10 C-1.125 8.375 -1.125 8.375 -2 6 C-1.125 2.75 -1.125 2.75 0 0 Z " fill="#2E2A2A" transform="translate(46,73)"/>
<path d="M0 0 C-0.33 0.99 -0.66 1.98 -1 3 C-2.8125 3.875 -2.8125 3.875 -5 4 C-7.25 2.5625 -7.25 2.5625 -9 1 C-5.57367167 -0.61798838 -3.61944899 -1.34053666 0 0 Z " fill="#504E52" transform="translate(100,28)"/>
<path d="M0 0 C0.33 0.99 0.66 1.98 1 3 C1.66 3 2.32 3 3 3 C3 5.31 3 7.62 3 10 C2.01 10.495 2.01 10.495 1 11 C0.67 7.37 0.34 3.74 0 0 Z " fill="#504D4C" transform="translate(262,154)"/>
<path d="M0 0 C0.99 0 1.98 0 3 0 C2.43628586 3.26954202 1.50037734 4.82575883 -1 7 C-1.99 6.67 -2.98 6.34 -4 6 C-3.525625 5.38125 -3.05125 4.7625 -2.5625 4.125 C-0.97582559 2.09294454 -0.97582559 2.09294454 0 0 Z " fill="#4D4C50" transform="translate(205,86)"/>
<path d="M0 0 C-2.05233685 2.2477975 -3.00667261 3.0022242 -6 4 C-8.1875 3.0625 -8.1875 3.0625 -10 2 C-8.71211992 1.46987262 -7.41953322 0.9511671 -6.125 0.4375 C-5.40570313 0.14746094 -4.68640625 -0.14257812 -3.9453125 -0.44140625 C-2 -1 -2 -1 0 0 Z " fill="#3F3C3C" transform="translate(242,195)"/>
<path d="M0 0 C0 0.99 0 1.98 0 3 C-1.98 3.66 -3.96 4.32 -6 5 C-6 4.01 -6 3.02 -6 2 C-3 0 -3 0 0 0 Z " fill="#3B3837" transform="translate(167,173)"/>
<path d="M0 0 C2.97 1.98 2.97 1.98 6 4 C5.67 4.66 5.34 5.32 5 6 C1.34683329 4.75023244 0.21934164 4.32901247 -2 1 C-1.34 0.67 -0.68 0.34 0 0 Z " fill="#373433" transform="translate(30,145)"/>
<path d="M0 0 C-0.8125 2.4375 -0.8125 2.4375 -2 5 C-2.99 5.33 -3.98 5.66 -5 6 C-5 4.35 -5 2.7 -5 1 C-3 0 -3 0 0 0 Z " fill="#262323" transform="translate(268,117)"/>
<path d="M0 0 C0.66 0.33 1.32 0.66 2 1 C0.625 2.5 0.625 2.5 -1 4 C-1.66 4 -2.32 4 -3 4 C-2.67 4.99 -2.34 5.98 -2 7 C-3.65 7.33 -5.3 7.66 -7 8 C-5.50902342 4.2047869 -3.24299151 2.38957269 0 0 Z " fill="#4D4A4C" transform="translate(145,86)"/>
<path d="M0 0 C2.6875 0.3125 2.6875 0.3125 5 1 C3.68 2.32 2.36 3.64 1 5 C-0.32 4.34 -1.64 3.68 -3 3 C-1.8125 1.4375 -1.8125 1.4375 0 0 Z " fill="#161519" transform="translate(115,109)"/>
<path d="M0 0 C2.64 0 5.28 0 8 0 C6.515 1.98 6.515 1.98 5 4 C2.525 3.01 2.525 3.01 0 2 C0 1.34 0 0.68 0 0 Z " fill="#2A2728" transform="translate(181,105)"/>
<path d="M0 0 C5.75 1.625 5.75 1.625 8 5 C7.01 5.33 6.02 5.66 5 6 C3.35 4.02 1.7 2.04 0 0 Z " fill="#3C3939" transform="translate(175,100)"/>
<path d="M0 0 C0.66 0.33 1.32 0.66 2 1 C0.6875 3.5 0.6875 3.5 -1 6 C-1.99 6 -2.98 6 -4 6 C-2.84826645 3.53199953 -1.95216435 1.95216435 0 0 Z " fill="#0F0D11" transform="translate(69,89)"/>
<path d="M0 0 C0.33 1.32 0.66 2.64 1 4 C-1.31 4 -3.62 4 -6 4 C-2.25 0 -2.25 0 0 0 Z " fill="#0F0D0E" transform="translate(41,147)"/>
<path d="M0 0 C0.78375 0.04125 1.5675 0.0825 2.375 0.125 C0.89 2.105 0.89 2.105 -0.625 4.125 C-1.945 3.465 -3.265 2.805 -4.625 2.125 C-2.625 0.125 -2.625 0.125 0 0 Z " fill="#282426" transform="translate(130.625,98.875)"/>
<path d="M0 0 C2.88575819 0.39803561 3.82189513 0.79009069 5.75 3.0625 C6.1625 3.701875 6.575 4.34125 7 5 C6.01 5 5.02 5 4 5 C3.67 4.34 3.34 3.68 3 3 C0.97536745 2.34786708 0.97536745 2.34786708 -1 2 C-0.67 1.34 -0.34 0.68 0 0 Z " fill="#131010" transform="translate(218,76)"/>
</svg>
